<svg width="1200" height="675" viewBox="0 0 1200 675" fill="none" xmlns="http://www.w3.org/2000/svg">
<rect width="1200" height="675" rx="8" fill="#F3F4F6"/>
<rect x="200" y="100" width="800" height="475" rx="12" fill="white"/>
<rect x="200" y="100" width="800" height="50" rx="0" fill="#4F46E5"/>
<circle cx="225" cy="125" r="10" fill="#FF5F57"/>
<circle cx="255" cy="125" r="10" fill="#FEBC2E"/>
<circle cx="285" cy="125" r="10" fill="#28C840"/>
<rect x="220" y="170" width="150" height="40" rx="4" fill="#E0E7FF"/>
<rect x="220" y="230" width="250" height="15" rx="4" fill="#E0E7FF"/>
<rect x="220" y="255" width="200" height="15" rx="4" fill="#E0E7FF"/>

<rect x="500" y="170" width="480" height="385" rx="8" fill="#F9FAFB"/>

<text x="520" y="200" fill="#111827" font-family="sans-serif" font-size="20" font-weight="bold">수행평가 캘린더</text>

<rect x="520" y="230" width="60" height="30" rx="4" fill="#DDD6FE"/>
<text x="530" y="250" fill="#4F46E5" font-family="sans-serif" font-size="14">월</text>
<rect x="590" y="230" width="60" height="30" rx="4" fill="#F3F4F6"/>
<text x="600" y="250" fill="#6B7280" font-family="sans-serif" font-size="14">화</text>
<rect x="660" y="230" width="60" height="30" rx="4" fill="#F3F4F6"/>
<text x="670" y="250" fill="#6B7280" font-family="sans-serif" font-size="14">수</text>
<rect x="730" y="230" width="60" height="30" rx="4" fill="#F3F4F6"/>
<text x="740" y="250" fill="#6B7280" font-family="sans-serif" font-size="14">목</text>
<rect x="800" y="230" width="60" height="30" rx="4" fill="#F3F4F6"/>
<text x="810" y="250" fill="#6B7280" font-family="sans-serif" font-size="14">금</text>

<rect x="520" y="280" width="100" height="70" rx="4" fill="white"/>
<text x="530" y="300" fill="#111827" font-family="sans-serif" font-size="14">1</text>
<rect x="520" y="360" width="100" height="70" rx="4" fill="white"/>
<text x="530" y="380" fill="#111827" font-family="sans-serif" font-size="14">8</text>
<rect x="630" y="360" width="100" height="70" rx="4" fill="#C7D2FE"/>
<text x="640" y="380" fill="#111827" font-family="sans-serif" font-size="14">9</text>
<text x="640" y="400" fill="#3730A3" font-family="sans-serif" font-size="10">국어 수행</text>
<text x="640" y="415" fill="#4338CA" font-family="sans-serif" font-size="10">D-3</text>

<rect x="750" y="450" width="200" height="80" rx="12" fill="#4F46E5" transform="rotate(-5 750 450)"/>
<text x="770" y="480" fill="white" font-family="sans-serif" font-size="16" font-weight="bold" transform="rotate(-5 750 450)">새로운 공지!</text>
<text x="770" y="500" fill="white" font-family="sans-serif" font-size="12" transform="rotate(-5 750 450)">과학 수행평가 일정이 변경되었습니다.</text>
</svg>
