<svg width="800" height="800" viewBox="0 0 800 800" fill="none" xmlns="http://www.w3.org/2000/svg">
<circle cx="400" cy="400" r="350" fill="#F3F4F6"/>

{/* Nodes */}
<circle cx="400" cy="150" r="50" fill="#4F46E5"/>
<text x="400" y="155" fill="white" text-anchor="middle" font-size="18" font-weight="bold">교사</text>
<circle cx="200" cy="400" r="50" fill="#10B981"/>
<text x="200" y="405" fill="white" text-anchor="middle" font-size="18" font-weight="bold">학생</text>
<circle cx="600" cy="400" r="50" fill="#F59E0B"/>
<text x="600" y="405" fill="white" text-anchor="middle" font-size="18" font-weight="bold">학부모</text>

<circle cx="400" cy="400" r="100" fill="white" stroke="#E5E7EB" stroke-width="4"/>
<text x="400" y="395" fill="#1F2937" text-anchor="middle" font-size="24" font-weight="bold">무한수행</text>
<text x="400" y="425" fill="#6B7280" text-anchor="middle" font-size="14">자동화 플랫폼</text>

{/* Arrows */}
<defs>
  <marker id="arrow" viewBox="0 0 10 10" refX="5" refY="5" markerWidth="6" markerHeight="6" orient="auto-start-reverse">
    <path d="M 0 0 L 10 5 L 0 10 z" fill="#6B7280" />
  </marker>
</defs>

<path d="M 400 200 Q 400 300 300 350" stroke="#6B7280" stroke-width="2" fill="none" marker-end="url(#arrow)" />
<text x="360" y="270" fill="#4B5563" font-size="12">공지 등록</text>

<path d="M 250 400 Q 300 400 300 400" stroke="#6B7280" stroke-width="2" fill="none" marker-end="url(#arrow)" />
<text x="260" y="380" fill="#4B5563" font-size="12">캘린더</text>

<path d="M 500 400 Q 550 400 550 400" stroke="#6B7280" stroke-width="2" fill="none" marker-start="url(#arrow)" />
<text x="510" y="380" fill="#4B5563" font-size="12">일정 확인</text>

<path d="M 400 500 Q 400 550 250 500" stroke="#6B7280" stroke-width="2" fill="none" />
<path d="M 250 500 Q 200 450 200 450" stroke="#6B7280" stroke-width="2" fill="none" marker-end="url(#arrow)" />
<text x="300" y="520" fill="#4B5563" font-size="12">자동 알림</text>

<path d="M 400 500 Q 400 550 550 500" stroke="#6B7280" stroke-width="2" fill="none" />
<path d="M 550 500 Q 600 450 600 450" stroke="#6B7280" stroke-width="2" fill="none" marker-end="url(#arrow)" />
<text x="500" y="520" fill="#4B5563" font-size="12">자동 알림</text>

</svg>
